. 
 
http://www.torrenting.com          :     Once & For all ;)


               www . Torrenting . Com 

(((((((((((((= Enjoy No RAR releases =))))))))))))))))))))


...................................NFO:....................................

.[IMG]http://img4.imageshack.us/img4/1616/mv5bndi0ndmzmdu3n15bml5.jpg[/IMG]

Complete name                    : Machine Gun Preacher 2011 BRRip H264 AC3 - DTRG.mkv
Format                           : Matroska
Format version                   : Version 2
File size                        : 697 MiB
Duration                         : 2h 8mn
Overall bit rate                 : 757 Kbps
Encoded date                     : UTC 2012-03-02 22:52:28
Writing application              : mkvmerge v5.2.1 ('A Far Off Place') built on Jan  2 2012 23:21:10
Writing library                  : libebml v1.2.3 + libmatroska v1.3.0

Video
ID                               : 1
Format                           : AVC
Format/Info                      : Advanced Video Codec
Format profile                   : High@L4.2
Format settings, CABAC           : Yes
Format settings, ReFrames        : 4 frames
Codec ID                         : V_MPEG4/ISO/AVC
Duration                         : 2h 8mn
Bit rate                         : 627 Kbps
Width                            : 720 pixels
Height                           : 304 pixels
Display aspect ratio             : 2.35:1
Frame rate                       : 23.976 fps
Color space                      : YUV
Chroma subsampling               : 4:2:0
Bit depth                        : 8 bits
Scan type                        : Progressive
Bits/(Pixel*Frame)               : 0.119
Stream size                      : 565 MiB (81%)
Writing library                  : x264 core 120 r2146 bcd41db
Language                         : English
Default                          : Yes
Forced                           : No
Source                           : 720p, thanks mate...

Audio
ID                               : 2
Format                           : AC-3
Format/Info                      : Audio Coding 3
Mode extension                   : CM (complete main)
Codec ID                         : A_AC3
Duration                         : 2h 8mn
Bit rate mode                    : Constant
Bit rate                         : 128 Kbps
Channel(s)                       : 2 channels
Channel positions                : Front: L R
Sampling rate                    : 48.0 KHz
Bit depth                        : 16 bits
Compression mode                 : Lossy
Stream size                      : 118 MiB (17%)
Default                          : Yes
Forced                           : No
Source                           : 720p, thanks mate...

iMDB: http://www.imdb.com/title/tt1586752/

Encoder: Kareemzos..

DTRG bringing the p2p world yet another release, The Muppets BRRip.......

straight forward encode tbh, sharpened, denoised....
colors are untocuhed because tis bluray.....
check the sample before downloading because the screens cant tell you the real Q of
the release, enjoy folks.....

[b][i][size=4]SCREENSHOTS:[/b][/i][/size]

[IMG]http://img831.imageshack.us/img831/8209/33649463.png[/IMG]
[IMG]http://img846.imageshack.us/img846/1258/65467945.png[/IMG]
[IMG]http://img804.imageshack.us/img804/3831/36110505.png[/IMG]
[IMG]http://img13.imageshack.us/img13/3194/43030314.png[/IMG]
[IMG]http://img210.imageshack.us/img210/6888/31123573.png[/IMG]
[IMG]http://img4.imageshack.us/img4/8789/34610054.png[/IMG]

EMBER, ETRG, BHRG, GooN, HOPE, CreWSaDe, RemixHD, LEGiTiMATE, DREAMER, INSPiRAL, LEGiON, XtremeEncode.......and maybe many more.......